<?xml version="1.0" standalone="no"?>
<!DOCTYPE svg PUBLIC "-//W3C//DTD SVG 20010904//EN"
 "http://www.w3.org/TR/2001/REC-SVG-20010904/DTD/svg10.dtd">
<svg version="1.0" xmlns="http://www.w3.org/2000/svg"
 width="1033.000000pt" height="752.000000pt" viewBox="0 0 1033.000000 752.000000"
 preserveAspectRatio="xMidYMid meet">
<metadata>
Created by potrace 1.16, written by Peter Selinger 2001-2019
</metadata>
<g transform="translate(0.000000,752.000000) scale(0.100000,-0.100000)"
fill="#000000" stroke="none">
<path d="M7664 5205 c-12 -8 -27 -35 -34 -60 l-13 -45 -49 0 c-39 0 -54 -5
-73 -25 -36 -35 -32 -62 18 -109 l44 -41 -13 -50 c-12 -45 -12 -52 5 -75 25
-35 68 -37 115 -5 l38 26 39 -25 c51 -34 93 -34 116 0 14 22 15 34 6 77 l-11
52 39 36 c31 29 39 44 39 72 0 46 -28 67 -91 67 -45 0 -46 1 -58 41 -22 72
-69 98 -117 64z m79 -135 c11 -22 20 -25 70 -28 31 -2 57 -6 57 -9 0 -3 -20
-24 -45 -47 l-45 -42 16 -53 c8 -29 13 -55 10 -58 -3 -3 -24 9 -48 26 -23 17
-48 31 -56 31 -8 0 -32 -14 -54 -31 -21 -17 -42 -29 -45 -25 -3 3 -1 23 5 45
19 61 15 77 -28 111 -22 17 -40 36 -40 41 0 5 21 9 46 9 56 0 80 12 88 44 3
14 11 38 17 53 l11 28 14 -35 c8 -19 20 -46 27 -60z"/>
<path d="M8477 5202 c-9 -10 -23 -36 -30 -58 -14 -38 -15 -39 -71 -44 -96 -9
-115 -64 -45 -134 l41 -41 -11 -47 c-23 -100 37 -140 122 -82 l38 26 38 -26
c44 -31 84 -33 111 -6 23 23 25 47 9 100 -11 37 -11 39 30 75 72 65 47 135
-48 135 l-49 0 -16 46 c-9 26 -24 53 -33 60 -26 19 -67 17 -86 -4z m63 -88
c18 -63 32 -74 96 -74 30 0 54 -4 54 -8 0 -5 -18 -21 -40 -38 -50 -36 -54 -49
-35 -109 8 -27 12 -51 10 -54 -3 -2 -25 10 -49 27 -24 18 -50 32 -56 32 -6 0
-32 -14 -56 -32 -24 -17 -46 -29 -49 -26 -3 3 2 24 10 48 22 64 19 76 -30 111
-25 18 -45 36 -45 41 0 4 24 8 54 8 64 0 78 11 96 74 7 25 16 46 20 46 4 0 13
-21 20 -46z"/>
<path d="M3017 4318 l-327 -423 0 -57 0 -58 310 0 310 0 0 -165 0 -165 60 0
60 0 0 165 0 165 83 0 82 0 0 55 0 55 -82 0 -83 0 0 425 0 425 -43 0 -43 0
-327 -422z m300 -425 c-2 -2 -115 -2 -250 -1 l-247 3 248 325 247 325 3 -324
c1 -178 1 -326 -1 -328z"/>
<path d="M5090 4659 c-120 -23 -261 -132 -319 -247 -134 -265 -37 -579 216
-700 77 -36 80 -37 198 -37 101 0 129 4 177 23 132 53 232 160 279 299 33 96
33 240 0 336 -80 236 -312 373 -551 326z m237 -135 c132 -63 213 -201 213
-360 0 -265 -240 -451 -472 -364 -81 30 -140 87 -185 178 -37 74 -38 79 -38
187 0 99 3 116 28 169 90 194 281 273 454 190z"/>
<path d="M3699 4628 c5 -13 100 -230 211 -483 l201 -460 -42 -105 c-73 -182
-88 -200 -169 -200 l-40 0 0 -55 0 -55 62 0 c77 0 136 27 172 79 15 21 141
321 280 667 l254 629 -55 3 c-30 2 -58 1 -60 -2 -3 -3 -77 -189 -165 -413 -88
-224 -163 -412 -167 -416 -5 -5 -38 60 -73 145 -36 84 -116 273 -178 421
l-113 267 -63 0 c-62 0 -63 -1 -55 -22z"/>
<path d="M5880 4283 c5 -357 6 -370 29 -428 33 -84 109 -158 181 -175 165 -40
364 32 460 167 l35 48 6 -78 c4 -67 9 -81 32 -104 21 -21 36 -27 74 -27 l48
-1 3 51 c3 45 0 53 -23 68 l-25 16 0 415 0 415 -60 0 -60 0 0 -303 0 -303 -26
-53 c-103 -207 -386 -286 -491 -138 -56 78 -56 85 -61 455 l-4 342 -61 0 -62
0 5 -367z"/>
<path d="M4835 3210 c-429 -49 -790 -300 -980 -685 -152 -306 -175 -636 -66
-956 209 -619 855 -967 1495 -804 244 62 465 199 628 390 271 318 365 721 263
1127 -105 416 -439 764 -848 882 -158 46 -340 63 -492 46z m361 -36 c414 -71
781 -385 928 -792 67 -188 89 -448 52 -635 -30 -157 -93 -311 -181 -448 -47
-73 -180 -229 -196 -229 -5 0 -9 197 -9 513 l0 512 -139 246 -140 245 -260
158 c-144 87 -267 156 -274 154 -7 -2 -196 -106 -420 -233 l-406 -230 -1 -690
-1 -690 -72 76 c-159 167 -268 379 -313 614 -24 126 -25 352 -1 465 71 328
259 604 538 786 263 173 571 234 895 178z m44 -460 l240 -146 2 -36 c2 -58 0
-104 -6 -109 -3 -3 -17 2 -30 11 -31 20 -36 20 -36 1 0 -8 18 -26 40 -40 38
-24 50 -47 31 -59 -4 -3 -17 1 -27 9 -24 18 -44 19 -44 1 0 -8 15 -24 34 -35
31 -19 51 -53 39 -65 -3 -2 -20 5 -39 16 -32 19 -34 19 -34 1 0 -22 256 -178
263 -159 3 7 17 4 43 -10 l39 -22 3 -497 2 -496 -58 33 c-32 18 -208 119 -390
223 l-331 190 -1 668 c0 424 4 667 10 667 5 0 118 -66 250 -146z m-285 -530
c1 -360 -2 -658 -5 -663 -3 -5 -158 -95 -345 -201 -187 -105 -359 -203 -382
-216 l-43 -25 0 668 0 668 382 217 c210 120 384 215 387 212 3 -3 6 -300 6
-660z m770 -52 c-4 -5 -188 108 -201 124 -8 10 -12 217 -5 254 1 3 48 -80 105
-185 58 -104 103 -191 101 -193z m-351 -867 c212 -121 385 -223 386 -228 0
-13 -133 -105 -220 -150 -187 -98 -361 -140 -580 -140 -226 1 -440 60 -627
175 -91 55 -164 116 -148 124 6 3 183 103 395 224 212 121 391 218 397 217 7
-1 186 -101 397 -222z"/>
<path d="M5410 1703 l0 -318 125 -73 c68 -41 128 -71 133 -68 11 6 15 606 4
622 -6 10 -247 154 -257 154 -3 0 -5 -143 -5 -317z m143 203 l97 -57 0 -280
c0 -153 -3 -279 -7 -279 -3 0 -51 26 -105 58 l-98 57 0 283 c0 156 3 281 8
279 4 -2 51 -30 105 -61z"/>
<path d="M4595 2499 c-154 -88 -290 -167 -302 -175 -22 -14 -23 -19 -23 -199
0 -102 3 -185 8 -185 4 0 142 78 307 174 l300 174 3 186 c1 102 -1 186 -5 186
-5 0 -134 -72 -288 -161z m258 -190 c-9 -9 -542 -319 -549 -319 -2 0 -4 69 -4
153 l0 152 278 157 277 158 3 -147 c1 -81 -1 -150 -5 -154z"/>
<path d="M4743 1717 l-133 -80 0 -94 c0 -85 2 -94 17 -89 9 4 72 41 140 82
l123 76 0 88 c0 49 -3 91 -7 93 -5 2 -68 -32 -140 -76z m117 -31 l0 -54 -105
-66 c-57 -36 -107 -66 -110 -66 -3 0 -5 27 -5 59 l0 60 98 60 c53 32 103 60
110 60 8 1 12 -16 12 -53z"/>
</g>
</svg>
